# xmcd
#
# Track frame offsets:
#	183
#	19260
#	35708
#	48505
#	61908
#	82363
#	97275
#	110083
#	123600
#	141150
#	150628
#	159633
#	171743
#	186378
#	199488
#	227955
#	246798
#	275300
#	289008
#	301923
#
# Disc length: 4182 seconds
#
# Revision: 1
# Processed by: cddbd v1.5PL3 Copyright (c) Steve Scherf et al.
# Submitted via: dBpowerAMP V4.0
#
DISCID=3d105414
DTITLE=Ray Charles - 20 Greatest Hits
DYEAR=1989
DGENRE=R&B
TTITLE0=I Can't Stop Loving You
TTITLE1=Georgia On My Mind
TTITLE2=Yesterday
TTITLE3=Take These Chains From My Heart
TTITLE4=What'd I Say
TTITLE5=We Go Again
TTITLE6=Unchain My Heart
TTITLE7=Eleanor Rigby
TTITLE8=Ruby
TTITLE9=Busted
TTITLE10=Hit The Road, Jack
TTITLE11=Together Again
TTITLE12=Born To Lose
TTITLE13=Crying Time
TTITLE14=I Got A Woman
TTITLE15=Baby It's Cold Outside
TTITLE16=Makin' Whoopee
TTITLE17=Let's Go Get Stoned
TTITLE18=Makin' Believe
TTITLE19=Don't Set Me Free
EXTD=Ian Baker
EXTT0=
EXTT1=
EXTT2=
EXTT3=
EXTT4=
EXTT5=
EXTT6=
EXTT7=
EXTT8=
EXTT9=
EXTT10=
EXTT11=
EXTT12=
EXTT13=
EXTT14=
EXTT15=
EXTT16=
EXTT17=
EXTT18=
EXTT19=
PLAYORDER=
